<mxfile host="app.diagrams.net" modified="2024-05-01T13:59:21.690Z" agent="Mozilla/5.0 (Windows NT 10.0; Win64; x64) AppleWebKit/537.36 (KHTML, like Gecko) Chrome/124.0.0.0 Safari/537.36" version="24.3.0" etag="IWEf-bLTo2hLJ2EMaXJ7" type="github">
  <diagram name="Page-1" id="w-fp3CN7Coq_JwAz8tq3">
    <mxGraphModel>
      <root>
        <mxCell id="0" />
        <mxCell id="1" parent="0" />
      </root>
    </mxGraphModel>
  </diagram>
</mxfile>
